<svg xmlns="http://www.w3.org/2000/svg" width="127" height="37" viewBox="0 0 127 37">
    <g fill="none" fill-rule="evenodd">
        <path fill="#FF441F" d="M70.812 14.152c-.124.656-.32 1.412-.584 2.248-.265.834-.604 1.714-1.004 2.607-.435.9-.886 1.742-1.338 2.501-.448.751-.894 1.397-1.323 1.92-.419.51-.807.886-1.153 1.12-.261.177-.406.196-.456.196-.023 0-.042-.004-.062-.012-.043-.019-.19-.113-.253-.562-.059-.41-.027-.95.094-1.603.123-.674.32-1.436.584-2.268.262-.83.6-1.71 1.006-2.614.403-.897.843-1.735 1.309-2.49.465-.753.918-1.392 1.346-1.9.416-.494.805-.866 1.156-1.103.262-.176.406-.195.456-.195.023 0 .043.003.06.011.043.018.19.114.254.562.059.411.027.943-.092 1.582m-17.694 0c-.123.656-.32 1.413-.583 2.248-.266.839-.605 1.718-1.004 2.607-.436.902-.886 1.744-1.338 2.501-.449.752-.894 1.398-1.324 1.92-.417.51-.805.886-1.153 1.12-.26.177-.405.196-.455.196-.023 0-.042-.004-.062-.012-.043-.019-.189-.113-.253-.562-.059-.408-.027-.948.093-1.603.124-.671.32-1.434.585-2.268.261-.83.6-1.71 1.007-2.614.403-.9.843-1.737 1.307-2.49.467-.754.92-1.394 1.347-1.9.418-.496.807-.867 1.156-1.103.261-.176.406-.195.456-.195.023 0 .043.003.06.011.044.018.19.114.254.562.058.41.027.942-.093 1.582m-19.143-.04c-.077.666-.226 1.427-.443 2.263-.217.833-.516 1.71-.887 2.608-.37.894-.765 1.734-1.173 2.498-.4.747-.804 1.383-1.202 1.893-.388.495-.752.865-1.083 1.098-.246.173-.381.191-.428.191-.021 0-.04-.003-.06-.012-.044-.019-.197-.116-.277-.572-.075-.416-.082-.954-.021-1.598.061-.656.202-1.408.418-2.237.216-.83.515-1.707.888-2.608.375-.905.77-1.746 1.173-2.499.398-.746.803-1.39 1.204-1.915.386-.507.75-.882 1.08-1.115.246-.172.382-.191.43-.191.021 0 .04.003.057.01.046.02.207.122.305.584.088.41.094.948.019 1.602m38.896-5.628c.927 0 1.724.271 2.37.805.623.517 1.067 1.254 1.321 2.191.246.908.297 2.007.151 3.265-.144 1.244-.526 2.663-1.133 4.22-.576 1.47-1.233 2.762-1.954 3.84-.35.525-.709 1.016-1.074 1.47-.046.057.024.133.09.098.212-.11.422-.23.632-.36.473-.291.927-.606 1.36-.94 1.207-.932 2.083-2.191 2.508-3.609.256-.852.539-1.698.845-2.531.505-1.373 1.044-2.654 1.601-3.808.556-1.151 1.018-2.013 1.373-2.562.402-.625.969-1.015 1.683-1.16.668-.134 1.308-.125 1.895.027.601.155 1.093.44 1.46.847.4.443.486.948.25 1.46-.071.177-.256.582-.552 1.204-.296.624-.628 1.356-1.015 2.235-.372.846-.754 1.76-1.135 2.718-.373.941-.664 1.82-.865 2.61-.196.77-.273 1.41-.23 1.903.044.47.232.47.333.47.144 0 .4-.065.793-.374.382-.299.785-.662 1.198-1.08.416-.42.814-.872 1.183-1.344.336-.43.625-.81.86-1.13.203-.28.529-.44.89-.44.383 0 .753.182.946.464.188.278.183.607-.016.903-.25.37-.686.995-1.334 1.907-.641.901-1.41 1.832-2.283 2.765-.886.947-1.856 1.788-2.884 2.499-1.08.748-2.172 1.128-3.243 1.128-.968 0-1.69-.32-2.147-.952-.417-.578-.629-1.353-.629-2.303l.001-.152c.002-.113-.136-.177-.23-.106-.202.156-.41.31-.625.462-1.258.893-2.71 1.651-4.318 2.253-1.436.54-3.019.813-4.704.813l-.342-.004-.345-.011c-1.146-.002-1.998-.346-2.531-1.022-.095-.12-.181-.242-.258-.369-.062-.1-.222-.083-.258.03-.173.55-.336 1.08-.488 1.587-.329 1.091-.608 2.036-.853 2.887-.247.853-.462 1.632-.638 2.316-.17.659-.289 1.193-.35 1.589l-.003.014c-.155.75-.687 1.014-1.106 1.103-.187.04-.381.06-.578.06-.355 0-.73-.065-1.115-.194-.585-.197-1.111-.538-1.565-1.013-.47-.494-.708-1.11-.708-1.835 0-.146.039-.467.341-1.65.225-.871.529-1.956.905-3.225.255-.86.545-1.797.866-2.797.04-.12-.105-.22-.215-.149-1.12.728-2.376 1.356-3.748 1.87-1.436.54-3.019.813-4.704.813l-.342-.004-.345-.011c-1.146-.002-1.998-.346-2.532-1.022-.094-.12-.18-.242-.257-.368-.062-.101-.222-.084-.258.028-.173.551-.337 1.082-.489 1.588-.329 1.095-.608 2.04-.852 2.887-.247.853-.462 1.632-.639 2.316-.17.66-.288 1.195-.35 1.589l-.002.014c-.155.75-.687 1.014-1.106 1.103-.187.04-.38.06-.578.06-.355 0-.73-.065-1.116-.194-.585-.198-1.11-.538-1.564-1.013-.47-.494-.708-1.11-.708-1.835 0-.148.039-.469.341-1.65.227-.88.53-1.965.905-3.225.222-.75.468-1.549.742-2.41.042-.13-.125-.23-.23-.137-.47.41-.955.79-1.452 1.139-1.064.75-2.149 1.13-3.221 1.13-.969 0-1.691-.32-2.148-.952-.185-.256-.329-.55-.432-.88-.093-.296-.488-.386-.713-.163-.315.313-.662.598-1.034.849-.484.327-1.026.601-1.61.814-.602.22-1.254.332-1.938.332-.924 0-1.734-.269-2.409-.799-.654-.513-1.14-1.24-1.443-2.161-.295-.893-.404-1.992-.323-3.265.08-1.259.38-2.671.892-4.2 1.09-3.17 2.513-5.524 4.229-7 1.748-1.504 3.52-2.266 5.268-2.266.741 0 1.367.142 1.86.422.486.276.86.641 1.113 1.087.17.3.293.62.37.961.013.06.098.073.13.019.088-.151.172-.288.253-.411.402-.623.96-1.013 1.657-1.158.652-.135 1.29-.127 1.894.025.619.155 1.119.44 1.487.848.4.443.487.948.249 1.46-.069.176-.25.57-.55 1.204-.294.62-.636 1.372-1.016 2.235-.376.856-.758 1.77-1.134 2.718-.374.942-.665 1.82-.865 2.61-.197.772-.274 1.412-.23 1.902.042.47.23.47.332.47.144 0 .4-.064.794-.373.218-.171.445-.365.677-.578.9-.826 1.502-1.728 1.904-2.851.534-1.488 1.096-2.958 1.674-4.375.616-1.507 1.218-2.86 1.787-4.022.299-.602.769-1.006 1.398-1.201.588-.183 1.192-.222 1.787-.115.593.108 1.111.333 1.542.67.192.15.344.31.458.48.03.046.065.05.107.013.51-.448 1.071-.86 1.678-1.228.888-.538 1.893-.812 2.987-.812.926 0 1.723.271 2.368.805.624.518 1.068 1.255 1.322 2.191.246.908.297 2.006.15 3.265-.143 1.244-.525 2.663-1.132 4.22-.576 1.47-1.234 2.763-1.955 3.841-.35.524-.708 1.015-1.073 1.468-.046.058.023.134.09.1.211-.11.422-.23.631-.36.339-.21.668-.43.986-.661 1.208-.876 2.11-2.074 2.59-3.438l.188-.533c.569-1.6 1.169-3.175 1.784-4.683.617-1.51 1.218-2.862 1.788-4.022.297-.602.767-1.006 1.397-1.201.589-.183 1.193-.222 1.787-.115.593.108 1.111.333 1.542.67.192.15.344.31.457.48.031.046.066.05.108.013.51-.448 1.072-.86 1.678-1.227.889-.54 1.893-.813 2.986-.813zM14.848.951c1.324 0 2.651.147 3.945.436 1.304.292 2.486.736 3.513 1.32 1.04.591 1.893 1.333 2.537 2.206.656.888.988 1.929.988 3.094 0 1.256-.292 2.434-.867 3.5-.571 1.056-1.356 2.02-2.333 2.867-.968.839-2.115 1.58-3.41 2.2-1.068.513-2.204.949-3.383 1.3-.075.023-.102.06-.099.133.026.556.068 1.103.126 1.632.067.607.155 1.199.263 1.76.106.55.234 1.088.379 1.596.112.393.238.776.373 1.139.086.232.176.458.268.672.184.428.388.838.604 1.22.212.372.442.727.684 1.053.235.317.487.616.75.888.257.265.528.51.807.726.272.212.558.403.851.569.285.16.585.3.89.416.3.113.611.205.924.271.313.067.637.11.963.13.326.02.665.015 1.004-.014.344-.028.695-.082 1.046-.16.357-.08.722-.185 1.085-.315.372-.132.748-.293 1.118-.476.142-.07.285-.144.428-.222.463-.252 1.053-.132 1.364.279.31.41.242.977-.16 1.31-.198.162-.396.321-.592.474-.476.37-.954.711-1.42 1.017-.443.29-.893.56-1.337.8-.223.12-.457.24-.694.353-.456.219-.919.412-1.374.574-.454.16-.91.294-1.354.395-.445.102-.891.175-1.329.218-.31.03-.623.045-.927.045-.123 0-.246-.002-.369-.007-.422-.017-.843-.065-1.25-.14-.202-.038-.404-.084-.603-.136-.192-.05-.389-.11-.586-.178-.38-.13-.755-.292-1.114-.478-.353-.183-.7-.395-1.028-.63-.266-.189-.527-.397-.775-.618-.3-.266-.59-.56-.864-.875-.271-.31-.531-.645-.773-.996s-.471-.725-.682-1.111c-.211-.386-.41-.796-.591-1.22-.18-.417-.348-.862-.5-1.321-.148-.451-.285-.93-.406-1.421-.12-.491-.225-1.001-.311-1.515-.077-.455-.143-.926-.194-1.405-.016-.146-.234-.165-.276-.024-.19.625-.361 1.231-.512 1.81-.19.727-.364 1.388-.522 1.982-.155.581-.265 1.049-.326 1.39-.126.607-.546.989-1.216 1.114-.577.107-1.197.063-1.836-.134-.63-.194-1.203-.531-1.704-1.002-.526-.495-.793-1.117-.793-1.849 0-.596.158-1.538.483-2.88.316-1.308.773-2.86 1.359-4.613.58-1.74 1.285-3.656 2.093-5.696.695-1.752 1.473-3.516 2.318-5.256.277-.57.848-.962 1.508-1.034 1.492-.164 2.787-.124 3.884.12.66.148 1.016.827.739 1.412-.708 1.494-1.36 2.984-1.943 4.435-.472 1.174-.924 2.336-1.35 3.467-.043.111.078.215.191.166.569-.248 1.131-.54 1.68-.873.9-.546 1.72-1.198 2.437-1.94.714-.738 1.3-1.572 1.74-2.479.436-.897.657-1.873.657-2.9 0-1.322-.387-2.297-1.15-2.9-.773-.61-1.862-.919-3.236-.919-1.464 0-2.802.328-3.978.976-1.206.662-2.249 1.479-3.1 2.426-.858.952-1.533 1.97-2.008 3.026-.47 1.047-.708 1.964-.708 2.727 0 .548-.306.943-.86 1.113-.487.15-1.023.128-1.573-.067-.53-.186-1.02-.553-1.459-1.092-.441-.54-.665-1.273-.665-2.177 0-.789.317-1.718.967-2.841.634-1.095 1.571-2.16 2.785-3.167C5.27 3.622 6.8 2.75 8.606 2.035 10.423 1.315 12.523.95 14.848.95zm70.738-.77c2.181 0 3.951 1.671 3.951 3.733 0 2.062-1.77 3.734-3.951 3.734-2.183 0-3.952-1.672-3.952-3.734 0-2.062 1.77-3.733 3.952-3.733z"/>
        <path fill="#332927" fill-rule="nonzero" d="M96.648 24.112c.95 0 1.688-.27 2.216-.808.528-.539.792-1.272.792-2.2V12.72H98.2v8.384c0 .48-.128.88-.384 1.2-.256.32-.667.48-1.232.48-.597 0-1.04-.19-1.328-.568-.288-.379-.432-.893-.432-1.544h-1.456c0 1.088.29 1.933.872 2.536.581.603 1.384.904 2.408.904zm8.248 0c.843 0 1.597-.181 2.264-.544.667-.363 1.19-.883 1.568-1.56.379-.677.568-1.475.568-2.392 0-.917-.19-1.717-.568-2.4-.379-.683-.901-1.205-1.568-1.568s-1.421-.544-2.264-.544c-.843 0-1.597.181-2.264.544-.667.363-1.192.885-1.576 1.568-.384.683-.576 1.483-.576 2.4 0 .917.192 1.715.576 2.392.384.677.91 1.197 1.576 1.56.667.363 1.421.544 2.264.544zm0-1.28c-.523 0-1.005-.117-1.448-.352-.443-.235-.8-.595-1.072-1.08-.272-.485-.408-1.08-.408-1.784 0-.715.136-1.315.408-1.8.272-.485.63-.845 1.072-1.08.443-.235.925-.352 1.448-.352.523 0 1.005.117 1.448.352.443.235.8.595 1.072 1.08.272.485.408 1.085.408 1.8 0 .704-.136 1.299-.408 1.784-.272.485-.63.845-1.072 1.08-.443.235-.925.352-1.448.352zm10.152 1.28c.779 0 1.472-.181 2.08-.544.608-.363 1.085-.883 1.432-1.56s.52-1.475.52-2.392c0-.917-.173-1.717-.52-2.4-.347-.683-.824-1.205-1.432-1.568s-1.301-.544-2.08-.544c-.853 0-1.576.216-2.168.648-.592.432-1 1-1.224 1.704V12.16H110.2V24h1.456v-2.24c.224.704.632 1.272 1.224 1.704.592.432 1.315.648 2.168.648zm-.416-1.28c-.565 0-1.077-.133-1.536-.4-.459-.267-.816-.643-1.072-1.128-.256-.485-.384-1.048-.384-1.688 0-.64.128-1.205.384-1.696.256-.49.613-.867 1.072-1.128.459-.261.97-.392 1.536-.392.907 0 1.63.285 2.168.856.539.57.808 1.357.808 2.36s-.27 1.79-.808 2.36c-.539.57-1.261.856-2.168.856zm8.712 1.28c.896 0 1.613-.224 2.152-.672.539-.448.808-1.03.808-1.744 0-.576-.141-1.035-.424-1.376-.283-.341-.624-.59-1.024-.744-.4-.155-.925-.307-1.576-.456-.512-.117-.915-.227-1.208-.328-.293-.101-.539-.25-.736-.448-.197-.197-.296-.456-.296-.776 0-.427.147-.765.44-1.016.293-.25.701-.376 1.224-.376.619 0 1.112.168 1.48.504.368.336.584.765.648 1.288h1.392c-.128-.875-.493-1.57-1.096-2.088-.603-.517-1.4-.776-2.392-.776-.939 0-1.68.227-2.224.68-.544.453-.816 1.048-.816 1.784 0 .555.136.995.408 1.32.272.325.603.563.992.712.39.15.91.299 1.56.448.523.117.933.23 1.232.336.299.107.55.261.752.464.203.203.304.475.304.816 0 .416-.141.752-.424 1.008-.283.256-.675.384-1.176.384-.672 0-1.213-.165-1.624-.496-.41-.33-.643-.763-.696-1.296h-1.408c.117.896.507 1.595 1.168 2.096.661.501 1.515.752 2.56.752z"/>
    </g>
</svg>
